<svg width="199" height="324" viewBox="0 0 199 324" fill="none" xmlns="http://www.w3.org/2000/svg">
<g filter="url(#filter0_d_6_226)">
<mask id="path-1-inside-1_6_226" fill="white">
<path fill-rule="evenodd" clip-rule="evenodd" d="M185.766 128.777C191.686 117.054 195 103.934 195 90.0836C195 40.3318 152.243 0 99.5 0C46.7568 0 4 40.3318 4 90.0836C4 103.934 7.31362 117.054 13.2338 128.777L99.5 316L185.766 128.777Z"/>
</mask>
<path fill-rule="evenodd" clip-rule="evenodd" d="M185.766 128.777C191.686 117.054 195 103.934 195 90.0836C195 40.3318 152.243 0 99.5 0C46.7568 0 4 40.3318 4 90.0836C4 103.934 7.31362 117.054 13.2338 128.777L99.5 316L185.766 128.777Z" fill="#E37463"/>
<path d="M185.766 128.777L183.981 127.876L183.965 127.908L183.95 127.94L185.766 128.777ZM13.2338 128.777L15.0503 127.94L15.0353 127.908L15.0191 127.876L13.2338 128.777ZM99.5 316L97.6835 316.837L99.5 320.779L101.316 316.837L99.5 316ZM193 90.0836C193 103.61 189.765 116.423 183.981 127.876L187.551 129.679C193.608 117.685 197 104.257 197 90.0836H193ZM99.5 2C151.25 2 193 41.5448 193 90.0836H197C197 39.1188 153.236 -2 99.5 -2V2ZM6 90.0836C6 41.5448 47.7497 2 99.5 2V-2C45.7639 -2 2 39.1188 2 90.0836H6ZM15.0191 127.876C9.23537 116.423 6 103.61 6 90.0836H2C2 104.257 5.39187 117.685 11.4486 129.679L15.0191 127.876ZM101.316 315.163L15.0503 127.94L11.4174 129.614L97.6835 316.837L101.316 315.163ZM183.95 127.94L97.6835 315.163L101.316 316.837L187.583 129.614L183.95 127.94Z" fill="black" mask="url(#path-1-inside-1_6_226)"/>
</g>
<mask id="path-3-inside-2_6_226" fill="white">
<path fill-rule="evenodd" clip-rule="evenodd" d="M67.2791 97.7902C63.3988 93.6775 61 88.0042 61 81.7391C61 69.1806 70.6384 59 82.528 59C89.7213 59 96.0907 62.7265 100 68.4515C103.909 62.7265 110.279 59 117.472 59C129.362 59 139 69.1806 139 81.7391C139 88.0042 136.601 93.6774 132.721 97.7902L100 139L67.2791 97.7902Z"/>
</mask>
<path fill-rule="evenodd" clip-rule="evenodd" d="M67.2791 97.7902C63.3988 93.6775 61 88.0042 61 81.7391C61 69.1806 70.6384 59 82.528 59C89.7213 59 96.0907 62.7265 100 68.4515C103.909 62.7265 110.279 59 117.472 59C129.362 59 139 69.1806 139 81.7391C139 88.0042 136.601 93.6774 132.721 97.7902L100 139L67.2791 97.7902Z" fill="white"/>
<path d="M67.2791 97.7902L68.8454 96.5466L68.7923 96.4798L68.7338 96.4177L67.2791 97.7902ZM100 68.4515L98.3483 69.5794L100 71.9981L101.652 69.5794L100 68.4515ZM132.721 97.7902L131.266 96.4177L131.208 96.4797L131.155 96.5465L132.721 97.7902ZM100 139L98.4337 140.244L100 142.216L101.566 140.244L100 139ZM68.7338 96.4177C65.2 92.6722 63 87.4885 63 81.7391H59C59 88.5198 61.5975 94.6827 65.8244 99.1627L68.7338 96.4177ZM63 81.7391C63 70.1807 71.8447 61 82.528 61V57C69.4321 57 59 68.1806 59 81.7391H63ZM82.528 61C89.0039 61 94.7786 64.3516 98.3483 69.5794L101.652 67.3237C97.4027 61.1014 90.4387 57 82.528 57V61ZM101.652 69.5794C105.221 64.3516 110.996 61 117.472 61V57C109.561 57 102.597 61.1014 98.3483 67.3237L101.652 69.5794ZM117.472 61C128.155 61 137 70.1807 137 81.7391H141C141 68.1806 130.568 57 117.472 57V61ZM137 81.7391C137 87.4885 134.8 92.6722 131.266 96.4177L134.176 99.1627C138.402 94.6827 141 88.5198 141 81.7391H137ZM131.155 96.5465L98.4337 137.756L101.566 140.244L134.287 99.0339L131.155 96.5465ZM101.566 137.756L68.8454 96.5466L65.7128 99.0339L98.4337 140.244L101.566 137.756Z" fill="black" mask="url(#path-3-inside-2_6_226)"/>
<defs>
<filter id="filter0_d_6_226" x="0" y="0" width="199" height="324" filterUnits="userSpaceOnUse" color-interpolation-filters="sRGB">
<feFlood flood-opacity="0" result="BackgroundImageFix"/>
<feColorMatrix in="SourceAlpha" type="matrix" values="0 0 0 0 0 0 0 0 0 0 0 0 0 0 0 0 0 0 127 0" result="hardAlpha"/>
<feOffset dy="4"/>
<feGaussianBlur stdDeviation="2"/>
<feComposite in2="hardAlpha" operator="out"/>
<feColorMatrix type="matrix" values="0 0 0 0 0 0 0 0 0 0 0 0 0 0 0 0 0 0 0.25 0"/>
<feBlend mode="normal" in2="BackgroundImageFix" result="effect1_dropShadow_6_226"/>
<feBlend mode="normal" in="SourceGraphic" in2="effect1_dropShadow_6_226" result="shape"/>
</filter>
</defs>
</svg>
