<svg width="199" height="324" viewBox="0 0 199 324" fill="none" xmlns="http://www.w3.org/2000/svg">
<g filter="url(#filter0_d_3_32)">
<mask id="path-1-inside-1_3_32" fill="white">
<path fill-rule="evenodd" clip-rule="evenodd" d="M185.766 128.777C191.686 117.054 195 103.934 195 90.0836C195 40.3318 152.243 0 99.5 0C46.7568 0 4 40.3318 4 90.0836C4 103.934 7.31362 117.054 13.2338 128.777L99.5 316L185.766 128.777Z"/>
</mask>
<path fill-rule="evenodd" clip-rule="evenodd" d="M185.766 128.777C191.686 117.054 195 103.934 195 90.0836C195 40.3318 152.243 0 99.5 0C46.7568 0 4 40.3318 4 90.0836C4 103.934 7.31362 117.054 13.2338 128.777L99.5 316L185.766 128.777Z" fill="#DD4747"/>
<path d="M185.766 128.777L183.981 127.876L183.965 127.908L183.95 127.94L185.766 128.777ZM13.2338 128.777L15.0503 127.94L15.0353 127.908L15.0191 127.876L13.2338 128.777ZM99.5 316L97.6835 316.837L99.5 320.779L101.316 316.837L99.5 316ZM193 90.0836C193 103.61 189.765 116.423 183.981 127.876L187.551 129.679C193.608 117.685 197 104.257 197 90.0836H193ZM99.5 2C151.25 2 193 41.5448 193 90.0836H197C197 39.1188 153.236 -2 99.5 -2V2ZM6 90.0836C6 41.5448 47.7497 2 99.5 2V-2C45.7639 -2 2 39.1188 2 90.0836H6ZM15.0191 127.876C9.23537 116.423 6 103.61 6 90.0836H2C2 104.257 5.39187 117.685 11.4486 129.679L15.0191 127.876ZM101.316 315.163L15.0503 127.94L11.4174 129.614L97.6835 316.837L101.316 315.163ZM183.95 127.94L97.6835 315.163L101.316 316.837L187.583 129.614L183.95 127.94Z" fill="black" mask="url(#path-1-inside-1_3_32)"/>
</g>
<mask id="path-3-inside-2_3_32" fill="white">
<path fill-rule="evenodd" clip-rule="evenodd" d="M67.2791 106.79C63.3988 102.677 61 97.0042 61 90.7391C61 78.1806 70.6384 68 82.528 68C89.7213 68 96.0907 71.7265 100 77.4515C103.909 71.7265 110.279 68 117.472 68C129.362 68 139 78.1806 139 90.7391C139 97.0042 136.601 102.677 132.721 106.79L100 148L67.2791 106.79Z"/>
</mask>
<path fill-rule="evenodd" clip-rule="evenodd" d="M67.2791 106.79C63.3988 102.677 61 97.0042 61 90.7391C61 78.1806 70.6384 68 82.528 68C89.7213 68 96.0907 71.7265 100 77.4515C103.909 71.7265 110.279 68 117.472 68C129.362 68 139 78.1806 139 90.7391C139 97.0042 136.601 102.677 132.721 106.79L100 148L67.2791 106.79Z" fill="white"/>
<path d="M67.2791 106.79L68.8454 105.547L68.7923 105.48L68.7338 105.418L67.2791 106.79ZM100 77.4515L98.3483 78.5794L100 80.9981L101.652 78.5794L100 77.4515ZM132.721 106.79L131.266 105.418L131.208 105.48L131.155 105.547L132.721 106.79ZM100 148L98.4337 149.244L100 151.216L101.566 149.244L100 148ZM68.7338 105.418C65.2 101.672 63 96.4885 63 90.7391H59C59 97.5198 61.5975 103.683 65.8244 108.163L68.7338 105.418ZM63 90.7391C63 79.1807 71.8447 70 82.528 70V66C69.4321 66 59 77.1806 59 90.7391H63ZM82.528 70C89.0039 70 94.7786 73.3516 98.3483 78.5794L101.652 76.3237C97.4027 70.1014 90.4387 66 82.528 66V70ZM101.652 78.5794C105.221 73.3516 110.996 70 117.472 70V66C109.561 66 102.597 70.1014 98.3483 76.3237L101.652 78.5794ZM117.472 70C128.155 70 137 79.1807 137 90.7391H141C141 77.1806 130.568 66 117.472 66V70ZM137 90.7391C137 96.4885 134.8 101.672 131.266 105.418L134.176 108.163C138.402 103.683 141 97.5198 141 90.7391H137ZM131.155 105.547L98.4337 146.756L101.566 149.244L134.287 108.034L131.155 105.547ZM101.566 146.756L68.8454 105.547L65.7128 108.034L98.4337 149.244L101.566 146.756Z" fill="black" mask="url(#path-3-inside-2_3_32)"/>
<defs>
<filter id="filter0_d_3_32" x="0" y="0" width="199" height="324" filterUnits="userSpaceOnUse" color-interpolation-filters="sRGB">
<feFlood flood-opacity="0" result="BackgroundImageFix"/>
<feColorMatrix in="SourceAlpha" type="matrix" values="0 0 0 0 0 0 0 0 0 0 0 0 0 0 0 0 0 0 127 0" result="hardAlpha"/>
<feOffset dy="4"/>
<feGaussianBlur stdDeviation="2"/>
<feComposite in2="hardAlpha" operator="out"/>
<feColorMatrix type="matrix" values="0 0 0 0 0 0 0 0 0 0 0 0 0 0 0 0 0 0 0.25 0"/>
<feBlend mode="normal" in2="BackgroundImageFix" result="effect1_dropShadow_3_32"/>
<feBlend mode="normal" in="SourceGraphic" in2="effect1_dropShadow_3_32" result="shape"/>
</filter>
</defs>
</svg>
