<svg width="199" height="324" viewBox="0 0 199 324" fill="none" xmlns="http://www.w3.org/2000/svg">
<g filter="url(#filter0_d_6_227)">
<mask id="path-1-inside-1_6_227" fill="white">
<path fill-rule="evenodd" clip-rule="evenodd" d="M185.766 128.777C191.686 117.054 195 103.934 195 90.0836C195 40.3318 152.243 0 99.5 0C46.7568 0 4 40.3318 4 90.0836C4 103.934 7.31362 117.054 13.2338 128.777L99.5 316L185.766 128.777Z"/>
</mask>
<path fill-rule="evenodd" clip-rule="evenodd" d="M185.766 128.777C191.686 117.054 195 103.934 195 90.0836C195 40.3318 152.243 0 99.5 0C46.7568 0 4 40.3318 4 90.0836C4 103.934 7.31362 117.054 13.2338 128.777L99.5 316L185.766 128.777Z" fill="#1F8484"/>
<path d="M185.766 128.777L183.981 127.876L183.965 127.908L183.95 127.94L185.766 128.777ZM13.2338 128.777L15.0503 127.94L15.0353 127.908L15.0191 127.876L13.2338 128.777ZM99.5 316L97.6835 316.837L99.5 320.779L101.316 316.837L99.5 316ZM193 90.0836C193 103.61 189.765 116.423 183.981 127.876L187.551 129.679C193.608 117.685 197 104.257 197 90.0836H193ZM99.5 2C151.25 2 193 41.5448 193 90.0836H197C197 39.1188 153.236 -2 99.5 -2V2ZM6 90.0836C6 41.5448 47.7497 2 99.5 2V-2C45.7639 -2 2 39.1188 2 90.0836H6ZM15.0191 127.876C9.23537 116.423 6 103.61 6 90.0836H2C2 104.257 5.39187 117.685 11.4486 129.679L15.0191 127.876ZM101.316 315.163L15.0503 127.94L11.4174 129.614L97.6835 316.837L101.316 315.163ZM183.95 127.94L97.6835 315.163L101.316 316.837L187.583 129.614L183.95 127.94Z" fill="black" mask="url(#path-1-inside-1_6_227)"/>
</g>
<mask id="path-3-inside-2_6_227" fill="white">
<path fill-rule="evenodd" clip-rule="evenodd" d="M66.2791 96.7902C62.3988 92.6775 60 87.0042 60 80.7391C60 68.1806 69.6384 58 81.528 58C88.7213 58 95.0907 61.7265 99 67.4515C102.909 61.7265 109.279 58 116.472 58C128.362 58 138 68.1806 138 80.7391C138 87.0042 135.601 92.6774 131.721 96.7902L99 138L66.2791 96.7902Z"/>
</mask>
<path fill-rule="evenodd" clip-rule="evenodd" d="M66.2791 96.7902C62.3988 92.6775 60 87.0042 60 80.7391C60 68.1806 69.6384 58 81.528 58C88.7213 58 95.0907 61.7265 99 67.4515C102.909 61.7265 109.279 58 116.472 58C128.362 58 138 68.1806 138 80.7391C138 87.0042 135.601 92.6774 131.721 96.7902L99 138L66.2791 96.7902Z" fill="white"/>
<path d="M66.2791 96.7902L67.8454 95.5466L67.7923 95.4798L67.7338 95.4177L66.2791 96.7902ZM99 67.4515L97.3483 68.5794L99 70.9981L100.652 68.5794L99 67.4515ZM131.721 96.7902L130.266 95.4177L130.208 95.4797L130.155 95.5465L131.721 96.7902ZM99 138L97.4337 139.244L99 141.216L100.566 139.244L99 138ZM67.7338 95.4177C64.2 91.6722 62 86.4885 62 80.7391H58C58 87.5198 60.5975 93.6827 64.8244 98.1627L67.7338 95.4177ZM62 80.7391C62 69.1807 70.8447 60 81.528 60V56C68.4321 56 58 67.1806 58 80.7391H62ZM81.528 60C88.0039 60 93.7786 63.3516 97.3483 68.5794L100.652 66.3237C96.4027 60.1014 89.4387 56 81.528 56V60ZM100.652 68.5794C104.221 63.3516 109.996 60 116.472 60V56C108.561 56 101.597 60.1014 97.3483 66.3237L100.652 68.5794ZM116.472 60C127.155 60 136 69.1807 136 80.7391H140C140 67.1806 129.568 56 116.472 56V60ZM136 80.7391C136 86.4885 133.8 91.6722 130.266 95.4177L133.176 98.1627C137.402 93.6827 140 87.5198 140 80.7391H136ZM130.155 95.5465L97.4337 136.756L100.566 139.244L133.287 98.0339L130.155 95.5465ZM100.566 136.756L67.8454 95.5466L64.7128 98.0339L97.4337 139.244L100.566 136.756Z" fill="black" mask="url(#path-3-inside-2_6_227)"/>
<defs>
<filter id="filter0_d_6_227" x="0" y="0" width="199" height="324" filterUnits="userSpaceOnUse" color-interpolation-filters="sRGB">
<feFlood flood-opacity="0" result="BackgroundImageFix"/>
<feColorMatrix in="SourceAlpha" type="matrix" values="0 0 0 0 0 0 0 0 0 0 0 0 0 0 0 0 0 0 127 0" result="hardAlpha"/>
<feOffset dy="4"/>
<feGaussianBlur stdDeviation="2"/>
<feComposite in2="hardAlpha" operator="out"/>
<feColorMatrix type="matrix" values="0 0 0 0 0 0 0 0 0 0 0 0 0 0 0 0 0 0 0.25 0"/>
<feBlend mode="normal" in2="BackgroundImageFix" result="effect1_dropShadow_6_227"/>
<feBlend mode="normal" in="SourceGraphic" in2="effect1_dropShadow_6_227" result="shape"/>
</filter>
</defs>
</svg>
