<svg width="199" height="324" viewBox="0 0 199 324" fill="none" xmlns="http://www.w3.org/2000/svg">
<g filter="url(#filter0_d_16_12)">
<mask id="path-1-inside-1_16_12" fill="white">
<path fill-rule="evenodd" clip-rule="evenodd" d="M185.766 128.777C191.686 117.054 195 103.934 195 90.0836C195 40.3318 152.243 0 99.5 0C46.7568 0 4 40.3318 4 90.0836C4 103.934 7.31362 117.054 13.2338 128.777L99.5 316L185.766 128.777Z"/>
</mask>
<path fill-rule="evenodd" clip-rule="evenodd" d="M185.766 128.777C191.686 117.054 195 103.934 195 90.0836C195 40.3318 152.243 0 99.5 0C46.7568 0 4 40.3318 4 90.0836C4 103.934 7.31362 117.054 13.2338 128.777L99.5 316L185.766 128.777Z" fill="#6DCCD6"/>
<path d="M185.766 128.777L183.981 127.876L183.965 127.908L183.95 127.94L185.766 128.777ZM13.2338 128.777L15.0503 127.94L15.0353 127.908L15.0191 127.876L13.2338 128.777ZM99.5 316L97.6835 316.837L99.5 320.779L101.316 316.837L99.5 316ZM193 90.0836C193 103.61 189.765 116.423 183.981 127.876L187.551 129.679C193.608 117.685 197 104.257 197 90.0836H193ZM99.5 2C151.25 2 193 41.5448 193 90.0836H197C197 39.1188 153.236 -2 99.5 -2V2ZM6 90.0836C6 41.5448 47.7497 2 99.5 2V-2C45.7639 -2 2 39.1188 2 90.0836H6ZM15.0191 127.876C9.23537 116.423 6 103.61 6 90.0836H2C2 104.257 5.39187 117.685 11.4486 129.679L15.0191 127.876ZM101.316 315.163L15.0503 127.94L11.4174 129.614L97.6835 316.837L101.316 315.163ZM183.95 127.94L97.6835 315.163L101.316 316.837L187.583 129.614L183.95 127.94Z" fill="black" mask="url(#path-1-inside-1_16_12)"/>
</g>
<mask id="path-3-inside-2_16_12" fill="white">
<path fill-rule="evenodd" clip-rule="evenodd" d="M116.225 113.955C127.75 102.4 129.831 83.6566 120.274 69.0963C109.365 52.4746 87.4204 47.5984 71.2603 58.205C55.1003 68.8116 50.8441 90.8846 61.7538 107.506C71.3104 122.067 89.3345 127.614 104.521 121.637L128.511 158.187C130.632 161.419 134.972 162.319 138.204 160.198C141.436 158.077 142.336 153.737 140.215 150.505L116.225 113.955Z"/>
</mask>
<path fill-rule="evenodd" clip-rule="evenodd" d="M116.225 113.955C127.75 102.4 129.831 83.6566 120.274 69.0963C109.365 52.4746 87.4204 47.5984 71.2603 58.205C55.1003 68.8116 50.8441 90.8846 61.7538 107.506C71.3104 122.067 89.3345 127.614 104.521 121.637L128.511 158.187C130.632 161.419 134.972 162.319 138.204 160.198C141.436 158.077 142.336 153.737 140.215 150.505L116.225 113.955Z" fill="white"/>
<path d="M116.225 113.955L114.809 112.542L113.661 113.693L114.553 115.052L116.225 113.955ZM104.521 121.637L106.193 120.539L105.301 119.18L103.788 119.776L104.521 121.637ZM118.602 70.1937C127.65 83.9784 125.652 101.672 114.809 112.542L117.641 115.367C129.849 103.128 132.012 83.3349 121.946 67.9989L118.602 70.1937ZM72.3578 59.877C87.5503 49.9054 108.269 54.4507 118.602 70.1937L121.946 67.9989C110.46 50.4984 87.2904 45.2913 70.1629 56.533L72.3578 59.877ZM63.4258 106.409C53.0928 90.6659 57.1652 69.8486 72.3578 59.877L70.1629 56.533C53.0353 67.7747 48.5953 91.1033 60.0817 108.604L63.4258 106.409ZM103.788 119.776C89.5009 125.399 72.4733 120.194 63.4258 106.409L60.0817 108.604C70.1475 123.94 89.1681 129.829 105.253 123.498L103.788 119.776ZM130.183 157.09L106.193 120.539L102.849 122.734L126.838 159.285L130.183 157.09ZM137.106 158.526C134.798 160.041 131.698 159.398 130.183 157.09L126.838 159.285C129.566 163.44 135.146 164.598 139.301 161.87L137.106 158.526ZM138.543 151.602C140.058 153.911 139.415 157.011 137.106 158.526L139.301 161.87C143.456 159.143 144.614 153.563 141.887 149.408L138.543 151.602ZM114.553 115.052L138.543 151.602L141.887 149.408L117.897 112.857L114.553 115.052Z" fill="black" mask="url(#path-3-inside-2_16_12)"/>
<defs>
<filter id="filter0_d_16_12" x="0" y="0" width="199" height="324" filterUnits="userSpaceOnUse" color-interpolation-filters="sRGB">
<feFlood flood-opacity="0" result="BackgroundImageFix"/>
<feColorMatrix in="SourceAlpha" type="matrix" values="0 0 0 0 0 0 0 0 0 0 0 0 0 0 0 0 0 0 127 0" result="hardAlpha"/>
<feOffset dy="4"/>
<feGaussianBlur stdDeviation="2"/>
<feComposite in2="hardAlpha" operator="out"/>
<feColorMatrix type="matrix" values="0 0 0 0 0 0 0 0 0 0 0 0 0 0 0 0 0 0 0.25 0"/>
<feBlend mode="normal" in2="BackgroundImageFix" result="effect1_dropShadow_16_12"/>
<feBlend mode="normal" in="SourceGraphic" in2="effect1_dropShadow_16_12" result="shape"/>
</filter>
</defs>
</svg>
