<svg width="199" height="324" viewBox="0 0 199 324" fill="none" xmlns="http://www.w3.org/2000/svg">
<g filter="url(#filter0_d_6_232)">
<mask id="path-1-inside-1_6_232" fill="white">
<path fill-rule="evenodd" clip-rule="evenodd" d="M185.766 128.777C191.686 117.054 195 103.934 195 90.0836C195 40.3318 152.243 0 99.5 0C46.7568 0 4 40.3318 4 90.0836C4 103.934 7.31362 117.054 13.2338 128.777L99.5 316L185.766 128.777Z"/>
</mask>
<path fill-rule="evenodd" clip-rule="evenodd" d="M185.766 128.777C191.686 117.054 195 103.934 195 90.0836C195 40.3318 152.243 0 99.5 0C46.7568 0 4 40.3318 4 90.0836C4 103.934 7.31362 117.054 13.2338 128.777L99.5 316L185.766 128.777Z" fill="#5C7457"/>
<path d="M185.766 128.777L183.981 127.876L183.965 127.908L183.95 127.94L185.766 128.777ZM13.2338 128.777L15.0503 127.94L15.0353 127.908L15.0191 127.876L13.2338 128.777ZM99.5 316L97.6835 316.837L99.5 320.779L101.316 316.837L99.5 316ZM193 90.0836C193 103.61 189.765 116.423 183.981 127.876L187.551 129.679C193.608 117.685 197 104.257 197 90.0836H193ZM99.5 2C151.25 2 193 41.5448 193 90.0836H197C197 39.1188 153.236 -2 99.5 -2V2ZM6 90.0836C6 41.5448 47.7497 2 99.5 2V-2C45.7639 -2 2 39.1188 2 90.0836H6ZM15.0191 127.876C9.23537 116.423 6 103.61 6 90.0836H2C2 104.257 5.39187 117.685 11.4486 129.679L15.0191 127.876ZM101.316 315.163L15.0503 127.94L11.4174 129.614L97.6835 316.837L101.316 315.163ZM183.95 127.94L97.6835 315.163L101.316 316.837L187.583 129.614L183.95 127.94Z" fill="black" mask="url(#path-1-inside-1_6_232)"/>
</g>
<mask id="path-3-inside-2_6_232" fill="white">
<path fill-rule="evenodd" clip-rule="evenodd" d="M66.2791 99.7902C62.3988 95.6775 60 90.0042 60 83.7391C60 71.1806 69.6384 61 81.528 61C88.7213 61 95.0907 64.7265 99 70.4515C102.909 64.7265 109.279 61 116.472 61C128.362 61 138 71.1806 138 83.7391C138 90.0042 135.601 95.6774 131.721 99.7902L99 141L66.2791 99.7902Z"/>
</mask>
<path fill-rule="evenodd" clip-rule="evenodd" d="M66.2791 99.7902C62.3988 95.6775 60 90.0042 60 83.7391C60 71.1806 69.6384 61 81.528 61C88.7213 61 95.0907 64.7265 99 70.4515C102.909 64.7265 109.279 61 116.472 61C128.362 61 138 71.1806 138 83.7391C138 90.0042 135.601 95.6774 131.721 99.7902L99 141L66.2791 99.7902Z" fill="white"/>
<path d="M66.2791 99.7902L67.8454 98.5466L67.7923 98.4798L67.7338 98.4177L66.2791 99.7902ZM99 70.4515L97.3483 71.5794L99 73.9981L100.652 71.5794L99 70.4515ZM131.721 99.7902L130.266 98.4177L130.208 98.4797L130.155 98.5465L131.721 99.7902ZM99 141L97.4337 142.244L99 144.216L100.566 142.244L99 141ZM67.7338 98.4177C64.2 94.6722 62 89.4885 62 83.7391H58C58 90.5198 60.5975 96.6827 64.8244 101.163L67.7338 98.4177ZM62 83.7391C62 72.1807 70.8447 63 81.528 63V59C68.4321 59 58 70.1806 58 83.7391H62ZM81.528 63C88.0039 63 93.7786 66.3516 97.3483 71.5794L100.652 69.3237C96.4027 63.1014 89.4387 59 81.528 59V63ZM100.652 71.5794C104.221 66.3516 109.996 63 116.472 63V59C108.561 59 101.597 63.1014 97.3483 69.3237L100.652 71.5794ZM116.472 63C127.155 63 136 72.1807 136 83.7391H140C140 70.1806 129.568 59 116.472 59V63ZM136 83.7391C136 89.4885 133.8 94.6722 130.266 98.4177L133.176 101.163C137.402 96.6827 140 90.5198 140 83.7391H136ZM130.155 98.5465L97.4337 139.756L100.566 142.244L133.287 101.034L130.155 98.5465ZM100.566 139.756L67.8454 98.5466L64.7128 101.034L97.4337 142.244L100.566 139.756Z" fill="black" mask="url(#path-3-inside-2_6_232)"/>
<defs>
<filter id="filter0_d_6_232" x="0" y="0" width="199" height="324" filterUnits="userSpaceOnUse" color-interpolation-filters="sRGB">
<feFlood flood-opacity="0" result="BackgroundImageFix"/>
<feColorMatrix in="SourceAlpha" type="matrix" values="0 0 0 0 0 0 0 0 0 0 0 0 0 0 0 0 0 0 127 0" result="hardAlpha"/>
<feOffset dy="4"/>
<feGaussianBlur stdDeviation="2"/>
<feComposite in2="hardAlpha" operator="out"/>
<feColorMatrix type="matrix" values="0 0 0 0 0 0 0 0 0 0 0 0 0 0 0 0 0 0 0.25 0"/>
<feBlend mode="normal" in2="BackgroundImageFix" result="effect1_dropShadow_6_232"/>
<feBlend mode="normal" in="SourceGraphic" in2="effect1_dropShadow_6_232" result="shape"/>
</filter>
</defs>
</svg>
